Coordinates
version=1
nRows=16
nColumns=36
inDegrees=yes

Units are S.I. units (second, meters, Newtons, ...)
If the header above contains a line with 'inDegrees', this indicates whether rotational values are in degrees (yes) or radians (no).

endheader
time	pelvis_tilt	pelvis_list	pelvis_rotation	pelvis_tx	pelvis_ty	pelvis_tz	hip_flexion_r	hip_adduction_r	hip_rotation_r	knee_angle_r	knee_angle_r_beta	ankle_angle_r	subtalar_angle_r	mtp_angle_r	hip_flexion_l	hip_adduction_l	hip_rotation_l	knee_angle_l	knee_angle_l_beta	ankle_angle_l	subtalar_angle_l	mtp_angle_l	lumbar_extension	lumbar_bending	lumbar_rotation	arm_flex_r	arm_add_r	arm_rot_r	elbow_flex_r	pro_sup_r	arm_flex_l	arm_add_l	arm_rot_l	elbow_flex_l	pro_sup_l
      0.00000000	    -10.12347684	      1.48079341	     -0.67516135	      0.28364555	      0.99662533	     -0.05645288	      3.06071874	     -2.94856334	     -7.50510804	      0.09079735	      0.00158471	      7.62224104	      2.43720267	     -6.18625886	      4.15628404	     -0.84568772	      0.02789557	      3.17968532	      0.05549598	     -1.80090342	     -8.09437189	     -6.18625886	      9.83531762	     -0.28058052	     25.86486882	    -53.49476939	    -19.71000741	     -5.26501650	     97.34816464	     97.79757941	     62.44445104	    -23.50319061	     30.67191724	    134.61106011	     61.70227506
      0.01666670	    -11.79031030	      1.48994850	     -0.56141719	      0.28192355	      0.99537773	     -0.05573367	      4.31601634	     -2.99666034	     -7.56370895	      0.08031881	      0.00140183	      9.03809913	      4.10945024	     -6.40465159	      5.06490056	     -0.98155513	      0.39031838	      1.89461978	      0.03306735	     -2.31826188	     -6.61058970	     -6.40465159	     13.33222322	      2.23321791	     22.26426108	    -38.47776280	    -13.38009212	    -10.20662595	     64.65050862	     93.09355155	     75.93990814	    -24.02002282	     10.49437781	    135.13257123	     59.22210843
      0.03333330	    -12.69565073	      1.79427474	     -0.31554606	      0.28274733	      0.99419297	     -0.05614337	      5.04061199	     -3.32819604	     -7.66583010	      0.07851136	      0.00137028	      9.75877959	      4.13954051	     -6.66827634	      5.79235170	     -0.61116940	      0.95558617	      1.48740798	      0.02596017	     -2.18785790	     -7.50086218	     -6.66827634	     14.51017047	      3.40121670	     15.21725595	    -29.99694969	    -15.75092117	     -5.04008483	     55.38939897	     83.48137203	     82.27959717	    -35.59156811	      3.64567482	    133.98431655	     50.18041457
      0.05000000	    -13.44866202	      1.86105062	     -0.22139132	      0.28275895	      0.99143724	     -0.05604227	      5.67586633	     -3.50041483	     -7.73595504	      0.07813406	      0.00136370	      9.80434714	      4.61427294	     -7.01936857	      6.33970048	     -0.59878462	      1.18735597	      1.06702881	      0.01862317	     -1.58283125	     -7.02113209	     -7.01936857	     15.17692983	      3.86288325	     11.07718704	    -26.73480192	    -16.61733653	     -1.42283297	     53.84140900	     73.85348232	     86.24780371	    -43.23201369	      3.06805507	    133.15067549	     43.12428483
      0.06666670	    -13.97578200	      1.94225794	     -0.21860261	      0.28353327	      0.99005253	     -0.05639223	      6.09320115	     -3.65902902	     -7.67565613	      0.07766226	      0.00135546	     10.02610378	      4.69173495	     -7.09709293	      6.72349949	     -0.55282852	      1.07461043	      0.80876994	      0.01411570	     -0.74293858	     -6.68270249	     -7.09709293	     15.92871616	      4.06799876	      8.53114646	    -24.88478681	    -17.03313725	      1.41994527	     53.32862186	     74.08669134	     88.63762673	    -47.48417005	      3.64208960	    132.74974513	     44.34772012
      0.08333330	    -14.37674546	      1.94872019	     -0.24336112	      0.28315855	      0.98893987	     -0.05633036	      6.41812761	     -3.73533777	     -7.76655505	      0.07711261	      0.00134587	     10.07843192	      4.84382370	     -7.13658332	      7.03116617	     -0.59418280	      0.61445174	      0.66991518	      0.01169223	     -0.05446378	     -6.07161552	     -7.13658332	     16.46154956	      4.26454291	      6.91248047	    -24.03751124	    -17.26992569	      2.88522222	     53.42493640	     74.52284340	     90.18589603	    -50.09870198	      4.53044353	    133.14002249	     45.77924804
      0.10000000	    -14.81313123	      1.96398866	     -0.27879626	      0.28381972	      0.98796050	     -0.05679549	      6.80845182	     -3.80471322	     -7.65139747	      0.07660868	      0.00133707	     10.16474817	      4.62861801	     -7.21049408	      7.40017705	     -0.61386577	      0.16689643	      0.59120516	      0.01031848	      0.55923774	     -5.68934163	     -7.21049408	     17.16594689	      4.45879870	      5.20616150	    -22.82176970	    -18.00970115	      5.53129460	     52.88537280	     75.88605868	     90.63179441	    -52.46869900	      4.51670510	    133.88298371	     49.50983705
      0.11666670	    -15.12033293	      1.96512656	     -0.34790071	      0.28333638	      0.98748553	     -0.05678896	      7.10044920	     -3.84682396	     -7.54682230	      0.07576990	      0.00132243	     10.09419043	      4.51419657	     -7.22813994	      7.64681734	     -0.63588248	     -0.30133254	      0.53785526	      0.00938735	      0.85509808	     -5.53902989	     -7.22813994	     17.64203112	      4.63100980	      4.96003252	    -22.81956447	    -17.97133796	      5.62564552	     52.86469423	     75.83154323	     90.59498687	    -52.39254483	      4.94531147	    134.23742911	     50.35009059
      0.13333330	    -15.36521656	      2.00552455	     -0.39451084	      0.28390583	      0.98682704	     -0.05722312	      7.33556748	     -3.93015890	     -7.44353205	      0.07514457	      0.00131152	      9.96260475	      4.38217368	     -7.32127767	      7.82995178	     -0.61399657	     -0.79498440	      0.51270449	      0.00894838	      1.18920175	     -5.06669607	     -7.32127767	     18.03980118	      4.76845613	      4.13409451	    -22.29062715	    -18.25619430	      6.28489029	     52.27815008	     79.81979193	     90.70734249	    -53.39510318	      5.19020572	    134.35917253	     59.65394658
      0.15000000	    -15.77930671	      2.06386637	     -0.44499266	      0.28368702	      0.98648481	     -0.05724245	      7.77300306	     -4.02151865	     -7.25949438	      0.07477859	      0.00130513	      9.70642386	      4.07044161	     -7.33820602	      8.19997928	     -0.56103105	     -1.21323546	      0.49885369	      0.00870664	      1.33078324	     -4.69053373	     -7.33820602	     18.62479199	      4.83904186	      4.10935903	    -22.48072491	    -18.23859030	      6.22485408	     52.16757404	     79.16028190	     90.47736688	    -52.92377221	      5.43616054	    134.49449563	     59.94879401
      0.16666670	    -15.80638301	      2.12643951	     -0.51685156	      0.28444906	      0.99192340	     -0.05810601	      7.82247002	     -4.11603727	     -7.15578158	      0.07382199	      0.00128844	      9.57639478	      4.13412733	     -7.37455360	      8.17508590	     -0.50497722	     -1.45633112	      0.46615648	      0.00813597	      1.40498779	     -4.65777856	     -7.37455360	     18.65084128	      4.96424924	      3.18047127	    -21.50781065	    -18.61704010	      7.69381390	     50.85377559	     79.69201829	     89.36229311	    -54.58130387	      4.35044449	    135.69074915	     62.85729996
      0.18333330	    -16.00778253	      2.18167504	     -0.63075913	      0.28389692	      0.99150650	     -0.05789544	      8.06472221	     -4.18822147	     -6.87087000	      0.07309193	      0.00127569	      9.27894796	      3.95106723	     -7.38871635	      8.32572737	     -0.45646314	     -1.82458206	      0.44578654	      0.00778044	      1.36111139	     -4.37010008	     -7.38871635	     18.95788678	      5.00004026	      3.34075627	    -21.52103128	    -18.38744612	      7.48185615	     49.97075051	     79.16840531	     88.18373259	    -54.29580025	      3.99361270	    136.10708605	     63.26566120
      0.20000000	    -16.02643035	      2.22774623	     -0.72161562	      0.28402165	      0.99097380	     -0.05827203	      8.09926756	     -4.25821600	     -6.76745437	      0.07244945	      0.00126448	      9.11170458	      3.88966000	     -7.41209096	      8.30486353	     -0.40150734	     -1.96995636	      0.43457916	      0.00758484	      1.27324607	     -4.41839858	     -7.41209096	     18.93034397	      5.27308758	      2.59061803	    -20.73494952	    -18.57854786	      7.86466897	     49.20042102	     82.00837370	     86.41852427	    -55.34246036	      2.10175980	    136.30276196	     66.26992335
      0.21666670	    -16.05127918	      2.31781529	     -0.85438828	      0.28326008	      0.99082346	     -0.05789959	      8.14764405	     -4.36589671	     -6.39611724	      0.07231890	      0.00126220	      8.94578821	      3.65556484	     -7.43599083	      8.28961841	     -0.32102931	     -2.24290883	      0.42806324	      0.00747111	      1.35360593	     -4.17260325	     -7.43599083	     18.97419864	      5.12016730	      3.06659262	    -20.80086678	    -18.25136944	      7.08995397	     48.82278439	     84.50774565	     86.58572787	    -54.50631848	      3.01359284	    135.87103920	     68.57731254
      0.23333330	    -16.16146901	      2.40442660	     -0.94521709	      0.28360452	      0.99029736	     -0.05820151	      8.26788795	     -4.47628907	     -6.17595441	      0.07250125	      0.00126539	      8.78288172	      3.49677126	     -7.44163062	      8.37256991	     -0.23137359	     -2.46095085	      0.43103640	      0.00752300	      1.41897701	     -3.94677522	     -7.44163062	     19.09540282	      5.10246144	      3.29460054	    -20.91953475	    -18.27268231	      7.04039161	     48.89986343	     83.59891040	     85.88558131	    -53.98777699	      3.48700091	    135.85573368	     68.44959869
      0.25000000	    -16.01909981	      2.46579853	     -1.10623024	      0.28297752	      0.99057426	     -0.05785070	      8.13523410	     -4.55400714	     -5.88579000	      0.07297324	      0.00127362	      8.75353113	      3.44047378	     -7.45895019	      8.19581580	     -0.17920156	     -2.57335410	      0.43111860	      0.00752444	      1.49167783	     -4.10428730	     -7.45895019	     18.82463680	      5.03598726	      3.48563281	    -20.76461109	    -18.31592580	      6.99763325	     48.78547030	     85.64654632	     85.94700497	    -53.60271093	      4.91194771	    135.80726232	     71.49867457
